<svg width="51" height="11" viewBox="0 0 51 11" fill="none" xmlns="http://www.w3.org/2000/svg">
<path d="M0.333984 0.642578H9.19336V3.67773H6.58594V10H2.94141V3.67773H0.333984V0.642578ZM16.7637 4.19922C16.7637 3.53906 16.4473 3.20898 15.8145 3.20898C15.541 3.20898 15.2363 3.38086 14.9004 3.72461C14.3965 4.24414 14.0449 4.86328 13.8457 5.58203C13.7832 5.80859 13.752 6.01758 13.752 6.20898C13.752 6.85742 14.0801 7.18164 14.7363 7.18164C14.998 7.18555 15.2969 7.01172 15.6328 6.66016C16.1211 6.14453 16.4668 5.51953 16.6699 4.78516C16.7324 4.55859 16.7637 4.36328 16.7637 4.19922ZM15.1641 10.2285C13.7773 10.2285 12.5742 9.7793 11.5547 8.88086C11.2305 8.5957 10.9492 8.26953 10.7109 7.90234C10.2031 7.125 9.94922 6.25586 9.94922 5.29492C9.94922 4.33008 10.1836 3.47656 10.6523 2.73438C11.1211 1.99219 11.75 1.41406 12.5391 1C13.3281 0.585938 14.1445 0.378906 14.9883 0.378906C15.8359 0.378906 16.582 0.492188 17.2266 0.71875C17.8711 0.945312 18.4316 1.27148 18.9082 1.69727C19.3887 2.11914 19.7656 2.63672 20.0391 3.25C20.3125 3.86328 20.4492 4.55664 20.4492 5.33008C20.4492 6.29102 20.2051 7.14648 19.7168 7.89648C19.2285 8.64258 18.5781 9.21875 17.7656 9.625C16.9531 10.0273 16.0859 10.2285 15.1641 10.2285ZM21.6152 0.642578C23.9863 0.466797 25.5332 0.378906 26.2559 0.378906C26.9824 0.378906 27.5547 0.447266 27.9727 0.583984C28.3945 0.716797 28.7715 0.902344 29.1035 1.14062C29.748 1.59766 30.2344 2.20508 30.5625 2.96289C30.8945 3.7207 31.0605 4.48828 31.0605 5.26562C31.0605 6.04297 30.9336 6.72266 30.6797 7.30469C30.4297 7.88281 30.082 8.37109 29.6367 8.76953C28.7266 9.59375 27.5488 10.0039 26.1035 10H21.6152V0.642578ZM25.2598 3.61328V7.18164C25.4668 7.00586 25.6914 6.83203 25.9336 6.66016C26.8633 5.99219 27.3281 5.29297 27.3281 4.5625C27.3281 4.20703 27.2227 3.87891 27.0117 3.57812C26.8008 3.27344 26.5254 3.12109 26.1855 3.12109C25.8496 3.12109 25.541 3.28516 25.2598 3.61328ZM38.748 4.19922C38.748 3.53906 38.4316 3.20898 37.7988 3.20898C37.5254 3.20898 37.2207 3.38086 36.8848 3.72461C36.3809 4.24414 36.0293 4.86328 35.8301 5.58203C35.7676 5.80859 35.7363 6.01758 35.7363 6.20898C35.7363 6.85742 36.0645 7.18164 36.7207 7.18164C36.9824 7.18555 37.2812 7.01172 37.6172 6.66016C38.1055 6.14453 38.4512 5.51953 38.6543 4.78516C38.7168 4.55859 38.748 4.36328 38.748 4.19922ZM37.1484 10.2285C35.7617 10.2285 34.5586 9.7793 33.5391 8.88086C33.2148 8.5957 32.9336 8.26953 32.6953 7.90234C32.1875 7.125 31.9336 6.25586 31.9336 5.29492C31.9336 4.33008 32.168 3.47656 32.6367 2.73438C33.1055 1.99219 33.7344 1.41406 34.5234 1C35.3125 0.585938 36.1289 0.378906 36.9727 0.378906C37.8203 0.378906 38.5664 0.492188 39.2109 0.71875C39.8555 0.945312 40.416 1.27148 40.8926 1.69727C41.373 2.11914 41.75 2.63672 42.0234 3.25C42.2969 3.86328 42.4336 4.55664 42.4336 5.33008C42.4336 6.29102 42.1895 7.14648 41.7012 7.89648C41.2129 8.64258 40.5625 9.21875 39.75 9.625C38.9375 10.0273 38.0703 10.2285 37.1484 10.2285ZM46.957 10.2285C45.2031 10.2285 44.0391 10.0117 43.4648 9.57812V6.89453C43.4805 6.89844 43.5371 6.91602 43.6348 6.94727C43.7363 6.97852 43.8633 7.01758 44.0156 7.06445C44.3711 7.17383 44.7441 7.27734 45.1348 7.375C45.5293 7.46875 45.8457 7.51562 46.084 7.51562C46.4746 7.51562 46.6699 7.39648 46.6699 7.1582C46.6699 6.97461 46.502 6.7793 46.166 6.57227C46.0137 6.47852 45.8398 6.38086 45.6445 6.2793C45.4531 6.17773 45.2578 6.06445 45.0586 5.93945C44.5703 5.63867 44.1777 5.28711 43.8809 4.88477C43.5879 4.48242 43.4414 3.97461 43.4414 3.36133C43.4414 2.02148 44.1484 1.12109 45.5625 0.660156C46.1367 0.472656 46.7988 0.378906 47.5488 0.378906C48.3027 0.378906 49.0898 0.464844 49.9102 0.636719C50.0781 0.671875 50.1895 0.697266 50.2441 0.712891V3.40234C49.1816 3.17578 48.418 3.0625 47.9531 3.0625C47.7734 3.0625 47.6387 3.09375 47.5488 3.15625C47.459 3.21875 47.4141 3.28906 47.4141 3.36719C47.4141 3.44531 47.4531 3.52734 47.5312 3.61328C47.6094 3.69531 47.7441 3.7793 47.9355 3.86523C48.127 3.94727 48.3496 4.04883 48.6035 4.16992C48.8613 4.28711 49.1016 4.41406 49.3242 4.55078C50.3242 5.16406 50.8242 6.00195 50.8242 7.06445C50.8242 8.07227 50.4844 8.85156 49.8047 9.40234C49.1172 9.94922 48.168 10.2246 46.957 10.2285Z" fill="black"/>
</svg>
